<svg xmlns="http://www.w3.org/2000/svg" style="display:none">
  <!-- NEST icon set — minimal line style, 24x24, use via <use href="images/icons/nest-icons.svg#name"> -->
  <symbol id="sprout" viewBox="0 0 24 24"><g fill="none" stroke="currentColor" stroke-width="1.8" stroke-linecap="round" stroke-linejoin="round">
    <path d="M12 21v-9"/><path d="M12 12C12 8 9 5 4 5c0 4 3 7 8 7z"/><path d="M12 12c0-3 2-6 6-6 0 3-2 6-6 6z"/></g></symbol>
  <symbol id="book" viewBox="0 0 24 24"><g fill="none" stroke="currentColor" stroke-width="1.8" stroke-linecap="round" stroke-linejoin="round">
    <path d="M12 6c-1.5-1.3-3.5-2-6-2H3v13h3c2.5 0 4.5.7 6 2"/><path d="M12 6c1.5-1.3 3.5-2 6-2h3v13h-3c-2.5 0-4.5.7-6 2z"/><path d="M12 6v13"/></g></symbol>
  <symbol id="eye" viewBox="0 0 24 24"><g fill="none" stroke="currentColor" stroke-width="1.8" stroke-linecap="round" stroke-linejoin="round">
    <path d="M2 12s3.5-7 10-7 10 7 10 7-3.5 7-10 7S2 12 2 12z"/><circle cx="12" cy="12" r="3"/></g></symbol>
  <symbol id="cap" viewBox="0 0 24 24"><g fill="none" stroke="currentColor" stroke-width="1.8" stroke-linecap="round" stroke-linejoin="round">
    <path d="M2 9l10-4 10 4-10 4z"/><path d="M6 11v4c0 1.3 2.7 3 6 3s6-1.7 6-3v-4"/><path d="M22 9v5"/></g></symbol>
  <symbol id="coin" viewBox="0 0 24 24"><g fill="none" stroke="currentColor" stroke-width="1.8" stroke-linecap="round" stroke-linejoin="round">
    <circle cx="12" cy="12" r="9"/><path d="M9 8h4.5a2 2 0 0 1 0 4H9zm0 4h6M9 8v8"/></g></symbol>
  <symbol id="community" viewBox="0 0 24 24"><g fill="none" stroke="currentColor" stroke-width="1.8" stroke-linecap="round" stroke-linejoin="round">
    <circle cx="8" cy="8" r="3"/><circle cx="17" cy="9" r="2.5"/><path d="M3 20c0-3 2.2-5 5-5s5 2 5 5"/><path d="M15 20c0-2.4.8-4.2 2.5-4.2 2.3 0 3.5 1.8 3.5 4.2"/></g></symbol>
  <symbol id="growth" viewBox="0 0 24 24"><g fill="none" stroke="currentColor" stroke-width="1.8" stroke-linecap="round" stroke-linejoin="round">
    <path d="M3 17l5-5 4 3 8-8"/><path d="M16 7h4v4"/></g></symbol>
  <symbol id="play" viewBox="0 0 24 24"><g fill="none" stroke="currentColor" stroke-width="1.8" stroke-linecap="round" stroke-linejoin="round">
    <rect x="3" y="4" width="18" height="16" rx="3"/><path d="M10 9l5 3-5 3z"/></g></symbol>
  <symbol id="star" viewBox="0 0 24 24"><g fill="none" stroke="currentColor" stroke-width="1.8" stroke-linecap="round" stroke-linejoin="round">
    <path d="M12 3l2.6 5.3 5.9.9-4.2 4.1 1 5.8L12 16.9 6.7 19.1l1-5.8L3.5 9.2l5.9-.9z"/></g></symbol>
  <symbol id="doc" viewBox="0 0 24 24"><g fill="none" stroke="currentColor" stroke-width="1.8" stroke-linecap="round" stroke-linejoin="round">
    <path d="M14 3H6a2 2 0 0 0-2 2v14a2 2 0 0 0 2 2h12a2 2 0 0 0 2-2V9z"/><path d="M14 3v6h6"/><path d="M8 13h8M8 17h6"/></g></symbol>
  <symbol id="video" viewBox="0 0 24 24"><g fill="none" stroke="currentColor" stroke-width="1.8" stroke-linecap="round" stroke-linejoin="round">
    <rect x="2" y="6" width="14" height="12" rx="2"/><path d="M16 10l6-3v10l-6-3z"/></g></symbol>
  <symbol id="check" viewBox="0 0 24 24"><g fill="none" stroke="currentColor" stroke-width="1.8" stroke-linecap="round" stroke-linejoin="round">
    <circle cx="12" cy="12" r="9"/><path d="M8 12.5l2.5 2.5 5-5"/></g></symbol>
  <symbol id="bank" viewBox="0 0 24 24"><g fill="none" stroke="currentColor" stroke-width="1.8" stroke-linecap="round" stroke-linejoin="round">
    <path d="M3 9l9-5 9 5z"/><path d="M5 9v8M10 9v8M14 9v8M19 9v8"/><path d="M3 20h18"/></g></symbol>
  <symbol id="pencil" viewBox="0 0 24 24"><g fill="none" stroke="currentColor" stroke-width="1.8" stroke-linecap="round" stroke-linejoin="round">
    <path d="M4 20h4L19 9a2.8 2.8 0 0 0-4-4L4 16z"/><path d="M14 6l4 4"/></g></symbol>
  <symbol id="mail" viewBox="0 0 24 24"><g fill="none" stroke="currentColor" stroke-width="1.8" stroke-linecap="round" stroke-linejoin="round">
    <rect x="3" y="5" width="18" height="14" rx="2"/><path d="M3 7l9 6 9-6"/></g></symbol>
  <symbol id="pin" viewBox="0 0 24 24"><g fill="none" stroke="currentColor" stroke-width="1.8" stroke-linecap="round" stroke-linejoin="round">
    <path d="M12 22c5-5 8-8.5 8-12a8 8 0 1 0-16 0c0 3.5 3 7 8 12z"/><circle cx="12" cy="10" r="2.6"/></g></symbol>
  <symbol id="heart" viewBox="0 0 24 24"><g fill="none" stroke="currentColor" stroke-width="1.8" stroke-linecap="round" stroke-linejoin="round">
    <path d="M12 20s-7-4.5-7-9.5A4 4 0 0 1 12 7a4 4 0 0 1 7 3.5C19 15.5 12 20 12 20z"/></g></symbol>
</svg>
